# Blender v2.78 (sub 0) OBJ File: 'house.blend'
# www.blender.org
mtllib houseRoof2.mtl
o RoofSide2_Cube.011
v -10.000000 9.500000 10.000000
v -10.000000 15.393261 5.202402
v -10.000000 9.500000 -10.000000
v -10.000000 15.408537 -5.199590
v -8.000000 9.500000 10.000000
v -8.000000 15.393261 5.202402
v -8.000000 9.500000 -10.000000
v -8.000000 15.408537 -5.199590
vt 0.7978 0.0002
vt 0.2037 0.0485
vt 0.2022 0.1534
vt 0.7978 0.2018
vt 0.2018 0.5959
vt 0.2018 0.0002
vt 0.0002 0.0002
vt 0.0002 0.5959
vt 0.5959 0.7978
vt 0.0002 0.7494
vt 0.0017 0.6446
vt 0.5959 0.5962
vt 0.7982 0.5943
vt 0.7982 0.0002
vt 0.9998 0.0002
vt 0.9998 0.5943
vt 0.4038 0.2022
vt 0.2022 0.2022
vt 0.2022 0.4038
vt 0.4038 0.4038
vt 0.2022 0.4041
vt 0.4038 0.4041
vt 0.4038 0.5090
vt 0.2022 0.5090
vn -1.0000 -0.0000 0.0000
vn 0.0000 0.6306 -0.7761
vn 1.0000 0.0000 0.0000
vn 0.0000 0.6313 0.7755
vn 0.0000 -1.0000 0.0000
vn 0.0000 1.0000 0.0015
usemtl Material
s off
f 1/1/1 2/2/1 4/3/1 3/4/1
f 3/5/2 4/6/2 8/7/2 7/8/2
f 7/9/3 8/10/3 6/11/3 5/12/3
f 5/13/4 6/14/4 2/15/4 1/16/4
f 3/17/5 7/18/5 5/19/5 1/20/5
f 8/21/6 4/22/6 2/23/6 6/24/6
o RoofSide1_Cube.010
v 8.000000 9.500000 10.000000
v 8.000000 15.393261 5.202402
v 8.000000 9.500000 -10.000000
v 8.000000 15.408537 -5.199590
v 10.000000 9.500000 10.000000
v 10.000000 15.393261 5.202402
v 10.000000 9.500000 -10.000000
v 10.000000 15.408537 -5.199590
vt 0.7500 0.7386
vt 0.8100 0.0019
vt 0.9400 0.0000
vt 1.0000 0.7386
vt 0.2500 0.0000
vt 0.2500 0.7410
vt 0.0000 0.7410
vt 0.0000 0.0000
vt 0.5000 0.7386
vt 0.5600 0.0000
vt 0.6900 0.0019
vt 0.7500 0.7386
vt 0.2500 0.7391
vt 0.2500 0.0000
vt 0.5000 0.0000
vt 0.5000 0.7391
vt 0.7500 0.9886
vt 0.5000 0.9886
vt 0.5000 0.7386
vt 0.8800 0.7386
vt 0.8800 0.9886
vt 0.7500 0.9886
vt 0.7500 0.7386
vn -0.5497 -0.3587 0.7544
vn -0.6222 0.7068 0.3366
vn -0.6218 0.7074 -0.3360
vn -0.5497 -0.3590 -0.7543
vn 0.6218 0.7074 -0.3360
vn 0.5497 -0.3590 -0.7543
vn 0.6222 0.7068 0.3366
vn 0.5497 -0.3587 0.7544
usemtl Material
s 1
f 9/25/7 10/26/8 12/27/9 11/28/10
f 11/29/10 12/30/9 16/31/11 15/32/12
f 15/33/12 16/34/11 14/35/13 13/36/14
f 13/37/14 14/38/13 10/39/8 9/40/7
f 11/41/10 15/42/12 13/43/14 9/25/7
f 16/44/11 12/45/9 10/46/8 14/47/13
o Roof45_1_Cube.009
v 10.000000 8.757360 -10.828428
v 10.000000 10.171573 -12.242641
v 10.000000 15.828427 -3.757360
v 10.000000 17.242641 -5.171574
v -10.000000 8.757360 -10.828426
v -10.000000 10.171573 -12.242640
v -10.000000 15.828427 -3.757359
v -10.000000 17.242641 -5.171572
vt 0.6667 0.3333
vt 0.3333 0.3333
vt 0.3333 0.0000
vt 0.6667 0.0000
vt 0.3333 0.6667
vt 0.0000 0.6667
vt 0.0000 0.3333
vt 0.3333 0.3333
vt 0.0000 0.0000
vt 0.3333 0.0000
vt 0.3333 0.6667
vt 0.3333 0.3333
vt 0.6667 0.3333
vt 0.6667 0.6667
vt 1.0000 0.3333
vt 0.6667 0.3333
vt 0.6667 0.0000
vt 1.0000 0.0000
vt 0.3333 0.6667
vt 0.3333 1.0000
vt 0.0000 1.0000
vt 0.0000 0.6667
vn 0.5773 -0.8165 0.0000
vn 0.5773 0.0000 -0.8165
vn 0.5773 0.8165 0.0000
vn 0.5773 0.0000 0.8165
vn -0.5773 0.8165 0.0000
vn -0.5773 0.0000 0.8165
vn -0.5773 0.0000 -0.8165
vn -0.5773 -0.8165 0.0000
usemtl (null)
s 1
f 17/48/15 18/49/16 20/50/17 19/51/18
f 19/52/18 20/53/17 24/54/19 23/55/20
f 23/55/20 24/54/19 22/56/21 21/57/22
f 21/58/22 22/59/21 18/60/16 17/61/15
f 19/62/18 23/63/20 21/64/22 17/65/15
f 24/66/19 20/67/17 18/68/16 22/69/21
o Roof45_2_Cube.008
v -10.000000 8.757360 10.828427
v -10.000000 10.171573 12.242640
v -10.000000 15.828427 3.757360
v -10.000000 17.242641 5.171573
v 10.000000 8.757360 10.828427
v 10.000000 10.171573 12.242640
v 10.000000 15.828427 3.757360
v 10.000000 17.242641 5.171573
vt 0.6667 0.3333
vt 0.3333 0.3333
vt 0.3333 0.0000
vt 0.6667 0.0000
vt 0.3333 0.6667
vt 0.0000 0.6667
vt 0.0000 0.3333
vt 0.3333 0.3333
vt 0.0000 0.0000
vt 0.3333 0.0000
vt 0.3333 0.6667
vt 0.3333 0.3333
vt 0.6667 0.3333
vt 0.6667 0.6667
vt 1.0000 0.3333
vt 0.6667 0.3333
vt 0.6667 0.0000
vt 1.0000 0.0000
vt 0.3333 0.6667
vt 0.3333 1.0000
vt 0.0000 1.0000
vt 0.0000 0.6667
vn -0.5773 -0.8165 0.0000
vn -0.5773 0.0000 0.8165
vn -0.5773 0.8165 0.0000
vn -0.5773 0.0000 -0.8165
vn 0.5773 0.8165 0.0000
vn 0.5773 0.0000 -0.8165
vn 0.5773 0.0000 0.8165
vn 0.5773 -0.8165 0.0000
usemtl (null)
s 1
f 25/70/23 26/71/24 28/72/25 27/73/26
f 27/74/26 28/75/25 32/76/27 31/77/28
f 31/77/28 32/76/27 30/78/29 29/79/30
f 29/80/30 30/81/29 26/82/24 25/83/23
f 27/84/26 31/85/28 29/86/30 25/87/23
f 32/88/27 28/89/25 26/90/24 30/91/29
o Ceiling_Cube.006
v -10.000000 15.200001 5.250000
v -10.000000 17.200001 5.250000
v -10.000000 15.200001 -5.250000
v -10.000000 17.200001 -5.250000
v 10.000000 15.200001 5.250000
v 10.000000 17.200001 5.250000
v 10.000000 15.200001 -5.250000
v 10.000000 17.200001 -5.250000
vt 0.6667 0.3333
vt 0.3333 0.3333
vt 0.3333 0.0000
vt 0.6667 0.0000
vt 0.3333 0.6667
vt 0.0000 0.6667
vt 0.0000 0.3333
vt 0.3333 0.3333
vt 0.0000 0.0000
vt 0.3333 0.0000
vt 0.3333 0.6667
vt 0.3333 0.3333
vt 0.6667 0.3333
vt 0.6667 0.6667
vt 1.0000 0.3333
vt 0.6667 0.3333
vt 0.6667 0.0000
vt 1.0000 0.0000
vt 0.3333 0.6667
vt 0.3333 1.0000
vt 0.0000 1.0000
vt 0.0000 0.6667
vn -0.5773 -0.5773 0.5773
vn -0.5773 0.5773 0.5773
vn -0.5773 0.5773 -0.5773
vn -0.5773 -0.5773 -0.5773
vn 0.5773 0.5773 -0.5773
vn 0.5773 -0.5773 -0.5773
vn 0.5773 0.5773 0.5773
vn 0.5773 -0.5773 0.5773
usemtl (null)
s 1
f 33/92/31 34/93/32 36/94/33 35/95/34
f 35/96/34 36/97/33 40/98/35 39/99/36
f 39/99/36 40/98/35 38/100/37 37/101/38
f 37/102/38 38/103/37 34/104/32 33/105/31
f 35/106/34 39/107/36 37/108/38 33/109/31
f 40/110/35 36/111/33 34/112/32 38/113/37
