# Blender v2.78 (sub 0) OBJ File: 'houseRoof.blend'
# www.blender.org
mtllib houseRoof.mtl
o Roof_RoofCube
v -16.000000 11.000000 11.000000
v -4.082710 21.000000 11.000000
v -16.000000 11.000000 -11.000000
v -3.774344 21.000000 -11.000000
v 16.000000 11.000000 11.000000
v 4.172932 21.000000 11.000000
v 16.000000 11.000000 -11.000000
v 4.406052 21.000000 -11.000000
v -28.592049 10.387979 22.518644
v -4.960310 10.387979 18.456938
v 0.947628 10.387979 -1.851585
vt 0.0000 0.0000
vt 1.0000 0.0000
vt 1.0000 1.0000
vt 0.0000 1.0000
vt 0.0000 0.0000
vt 1.0000 0.0000
vt 1.0000 1.0000
vt 0.0000 1.0000
vt 0.0000 0.0000
vt 1.0000 0.0000
vt 1.0000 1.0000
vt 0.0000 1.0000
vt 0.0000 0.0000
vt 1.0000 0.0000
vt 1.0000 1.0000
vt 0.0000 1.0000
vt 1.0000 0.0000
vt 1.0000 1.0000
vt 0.0000 0.0000
vt 0.0000 1.0000
vn -0.6379 0.7701 -0.0045
vn 0.0000 0.0000 -1.0000
vn 0.6494 0.7605 0.0034
vn 0.0000 0.0000 1.0000
vn 0.0000 -1.0000 0.0000
vn 0.0000 1.0000 0.0000
usemtl None
s off
f 1/1/1 2/2/1 4/3/1 3/4/1
f 3/5/2 4/6/2 8/7/2 7/8/2
f 7/9/3 8/10/3 6/11/3 5/12/3
f 5/13/4 6/14/4 2/15/4 1/16/4
f 3/5/5 7/17/5 5/18/5 1/16/5
f 8/19/6 4/6/6 2/15/6 6/20/6
